<?xml version="1.0" encoding="utf-8" standalone="no"?>
<!DOCTYPE svg PUBLIC "-//W3C//DTD SVG 1.1//EN"
  "http://www.w3.org/Graphics/SVG/1.1/DTD/svg11.dtd">
<svg xmlns:xlink="http://www.w3.org/1999/xlink" width="717.403125pt" height="363.718125pt" viewBox="0 0 717.403125 363.718125" xmlns="http://www.w3.org/2000/svg" version="1.1">
 <metadata>
  <rdf:RDF xmlns:dc="http://purl.org/dc/elements/1.1/" xmlns:cc="http://creativecommons.org/ns#" xmlns:rdf="http://www.w3.org/1999/02/22-rdf-syntax-ns#">
   <cc:Work>
    <dc:type rdf:resource="http://purl.org/dc/dcmitype/StillImage"/>
    <dc:date>2022-10-07T14:05:44.939344</dc:date>
    <dc:format>image/svg+xml</dc:format>
    <dc:creator>
     <cc:Agent>
      <dc:title>Matplotlib v3.5.2, https://matplotlib.org/</dc:title>
     </cc:Agent>
    </dc:creator>
   </cc:Work>
  </rdf:RDF>
 </metadata>
 <defs>
  <style type="text/css">*{stroke-linejoin: round; stroke-linecap: butt}</style>
 </defs>
 <g id="figure_1">
  <g id="patch_1">
   <path d="M 0 363.718125 
L 717.403125 363.718125 
L 717.403125 0 
L 0 0 
z
" style="fill: #ffffff"/>
  </g>
  <g id="axes_1">
   <g id="patch_2">
    <path d="M 40.603125 158.4 
L 710.203125 158.4 
L 710.203125 7.2 
L 40.603125 7.2 
z
" style="fill: #ffffff"/>
   </g>
   <g id="matplotlib.axis_1">
    <g id="xtick_1">
     <g id="line2d_1">
      <path d="M 115.533397 158.4 
L 115.533397 7.2 
" clip-path="url(#pab34efd456)" style="fill: none; stroke: #b0b0b0; stroke-width: 0.8; stroke-linecap: square"/>
     </g>
     <g id="line2d_2">
      <defs>
       <path id="ma5f1cd3619" d="M 0 0 
L 0 3.5 
" style="stroke: #000000; stroke-width: 0.8"/>
      </defs>
      <g>
       <use xlink:href="#ma5f1cd3619" x="115.533397" y="158.4" style="stroke: #000000; stroke-width: 0.8"/>
      </g>
     </g>
     <g id="text_1">
      <!-- $\mathdefault{10^{-272}}$ -->
      <g transform="translate(99.333397 172.998437)scale(0.1 -0.1)">
       <defs>
        <path id="DejaVuSans-31" d="M 794 531 
L 1825 531 
L 1825 4091 
L 703 3866 
L 703 4441 
L 1819 4666 
L 2450 4666 
L 2450 531 
L 3481 531 
L 3481 0 
L 794 0 
L 794 531 
z
" transform="scale(0.015625)"/>
        <path id="DejaVuSans-30" d="M 2034 4250 
Q 1547 4250 1301 3770 
Q 1056 3291 1056 2328 
Q 1056 1369 1301 889 
Q 1547 409 2034 409 
Q 2525 409 2770 889 
Q 3016 1369 3016 2328 
Q 3016 3291 2770 3770 
Q 2525 4250 2034 4250 
z
M 2034 4750 
Q 2819 4750 3233 4129 
Q 3647 3509 3647 2328 
Q 3647 1150 3233 529 
Q 2819 -91 2034 -91 
Q 1250 -91 836 529 
Q 422 1150 422 2328 
Q 422 3509 836 4129 
Q 1250 4750 2034 4750 
z
" transform="scale(0.015625)"/>
        <path id="DejaVuSans-2212" d="M 678 2272 
L 4684 2272 
L 4684 1741 
L 678 1741 
L 678 2272 
z
" transform="scale(0.015625)"/>
        <path id="DejaVuSans-32" d="M 1228 531 
L 3431 531 
L 3431 0 
L 469 0 
L 469 531 
Q 828 903 1448 1529 
Q 2069 2156 2228 2338 
Q 2531 2678 2651 2914 
Q 2772 3150 2772 3378 
Q 2772 3750 2511 3984 
Q 2250 4219 1831 4219 
Q 1534 4219 1204 4116 
Q 875 4013 500 3803 
L 500 4441 
Q 881 4594 1212 4672 
Q 1544 4750 1819 4750 
Q 2544 4750 2975 4387 
Q 3406 4025 3406 3419 
Q 3406 3131 3298 2873 
Q 3191 2616 2906 2266 
Q 2828 2175 2409 1742 
Q 1991 1309 1228 531 
z
" transform="scale(0.015625)"/>
        <path id="DejaVuSans-37" d="M 525 4666 
L 3525 4666 
L 3525 4397 
L 1831 0 
L 1172 0 
L 2766 4134 
L 525 4134 
L 525 4666 
z
" transform="scale(0.015625)"/>
       </defs>
       <use xlink:href="#DejaVuSans-31" transform="translate(0 0.765625)"/>
       <use xlink:href="#DejaVuSans-30" transform="translate(63.623047 0.765625)"/>
       <use xlink:href="#DejaVuSans-2212" transform="translate(128.203125 39.046875)scale(0.7)"/>
       <use xlink:href="#DejaVuSans-32" transform="translate(186.855469 39.046875)scale(0.7)"/>
       <use xlink:href="#DejaVuSans-37" transform="translate(231.391602 39.046875)scale(0.7)"/>
       <use xlink:href="#DejaVuSans-32" transform="translate(275.927734 39.046875)scale(0.7)"/>
      </g>
     </g>
    </g>
    <g id="xtick_2">
     <g id="line2d_3">
      <path d="M 192.004003 158.4 
L 192.004003 7.2 
" clip-path="url(#pab34efd456)" style="fill: none; stroke: #b0b0b0; stroke-width: 0.8; stroke-linecap: square"/>
     </g>
     <g id="line2d_4">
      <g>
       <use xlink:href="#ma5f1cd3619" x="192.004003" y="158.4" style="stroke: #000000; stroke-width: 0.8"/>
      </g>
     </g>
     <g id="text_2">
      <!-- $\mathdefault{10^{-235}}$ -->
      <g transform="translate(175.804003 172.998437)scale(0.1 -0.1)">
       <defs>
        <path id="DejaVuSans-33" d="M 2597 2516 
Q 3050 2419 3304 2112 
Q 3559 1806 3559 1356 
Q 3559 666 3084 287 
Q 2609 -91 1734 -91 
Q 1441 -91 1130 -33 
Q 819 25 488 141 
L 488 750 
Q 750 597 1062 519 
Q 1375 441 1716 441 
Q 2309 441 2620 675 
Q 2931 909 2931 1356 
Q 2931 1769 2642 2001 
Q 2353 2234 1838 2234 
L 1294 2234 
L 1294 2753 
L 1863 2753 
Q 2328 2753 2575 2939 
Q 2822 3125 2822 3475 
Q 2822 3834 2567 4026 
Q 2313 4219 1838 4219 
Q 1578 4219 1281 4162 
Q 984 4106 628 3988 
L 628 4550 
Q 988 4650 1302 4700 
Q 1616 4750 1894 4750 
Q 2613 4750 3031 4423 
Q 3450 4097 3450 3541 
Q 3450 3153 3228 2886 
Q 3006 2619 2597 2516 
z
" transform="scale(0.015625)"/>
        <path id="DejaVuSans-35" d="M 691 4666 
L 3169 4666 
L 3169 4134 
L 1269 4134 
L 1269 2991 
Q 1406 3038 1543 3061 
Q 1681 3084 1819 3084 
Q 2600 3084 3056 2656 
Q 3513 2228 3513 1497 
Q 3513 744 3044 326 
Q 2575 -91 1722 -91 
Q 1428 -91 1123 -41 
Q 819 9 494 109 
L 494 744 
Q 775 591 1075 516 
Q 1375 441 1709 441 
Q 2250 441 2565 725 
Q 2881 1009 2881 1497 
Q 2881 1984 2565 2268 
Q 2250 2553 1709 2553 
Q 1456 2553 1204 2497 
Q 953 2441 691 2322 
L 691 4666 
z
" transform="scale(0.015625)"/>
       </defs>
       <use xlink:href="#DejaVuSans-31" transform="translate(0 0.765625)"/>
       <use xlink:href="#DejaVuSans-30" transform="translate(63.623047 0.765625)"/>
       <use xlink:href="#DejaVuSans-2212" transform="translate(128.203125 39.046875)scale(0.7)"/>
       <use xlink:href="#DejaVuSans-32" transform="translate(186.855469 39.046875)scale(0.7)"/>
       <use xlink:href="#DejaVuSans-33" transform="translate(231.391602 39.046875)scale(0.7)"/>
       <use xlink:href="#DejaVuSans-35" transform="translate(275.927734 39.046875)scale(0.7)"/>
      </g>
     </g>
    </g>
    <g id="xtick_3">
     <g id="line2d_5">
      <path d="M 268.474609 158.4 
L 268.474609 7.2 
" clip-path="url(#pab34efd456)" style="fill: none; stroke: #b0b0b0; stroke-width: 0.8; stroke-linecap: square"/>
     </g>
     <g id="line2d_6">
      <g>
       <use xlink:href="#ma5f1cd3619" x="268.474609" y="158.4" style="stroke: #000000; stroke-width: 0.8"/>
      </g>
     </g>
     <g id="text_3">
      <!-- $\mathdefault{10^{-198}}$ -->
      <g transform="translate(252.274609 172.998437)scale(0.1 -0.1)">
       <defs>
        <path id="DejaVuSans-39" d="M 703 97 
L 703 672 
Q 941 559 1184 500 
Q 1428 441 1663 441 
Q 2288 441 2617 861 
Q 2947 1281 2994 2138 
Q 2813 1869 2534 1725 
Q 2256 1581 1919 1581 
Q 1219 1581 811 2004 
Q 403 2428 403 3163 
Q 403 3881 828 4315 
Q 1253 4750 1959 4750 
Q 2769 4750 3195 4129 
Q 3622 3509 3622 2328 
Q 3622 1225 3098 567 
Q 2575 -91 1691 -91 
Q 1453 -91 1209 -44 
Q 966 3 703 97 
z
M 1959 2075 
Q 2384 2075 2632 2365 
Q 2881 2656 2881 3163 
Q 2881 3666 2632 3958 
Q 2384 4250 1959 4250 
Q 1534 4250 1286 3958 
Q 1038 3666 1038 3163 
Q 1038 2656 1286 2365 
Q 1534 2075 1959 2075 
z
" transform="scale(0.015625)"/>
        <path id="DejaVuSans-38" d="M 2034 2216 
Q 1584 2216 1326 1975 
Q 1069 1734 1069 1313 
Q 1069 891 1326 650 
Q 1584 409 2034 409 
Q 2484 409 2743 651 
Q 3003 894 3003 1313 
Q 3003 1734 2745 1975 
Q 2488 2216 2034 2216 
z
M 1403 2484 
Q 997 2584 770 2862 
Q 544 3141 544 3541 
Q 544 4100 942 4425 
Q 1341 4750 2034 4750 
Q 2731 4750 3128 4425 
Q 3525 4100 3525 3541 
Q 3525 3141 3298 2862 
Q 3072 2584 2669 2484 
Q 3125 2378 3379 2068 
Q 3634 1759 3634 1313 
Q 3634 634 3220 271 
Q 2806 -91 2034 -91 
Q 1263 -91 848 271 
Q 434 634 434 1313 
Q 434 1759 690 2068 
Q 947 2378 1403 2484 
z
M 1172 3481 
Q 1172 3119 1398 2916 
Q 1625 2713 2034 2713 
Q 2441 2713 2670 2916 
Q 2900 3119 2900 3481 
Q 2900 3844 2670 4047 
Q 2441 4250 2034 4250 
Q 1625 4250 1398 4047 
Q 1172 3844 1172 3481 
z
" transform="scale(0.015625)"/>
       </defs>
       <use xlink:href="#DejaVuSans-31" transform="translate(0 0.765625)"/>
       <use xlink:href="#DejaVuSans-30" transform="translate(63.623047 0.765625)"/>
       <use xlink:href="#DejaVuSans-2212" transform="translate(128.203125 39.046875)scale(0.7)"/>
       <use xlink:href="#DejaVuSans-31" transform="translate(186.855469 39.046875)scale(0.7)"/>
       <use xlink:href="#DejaVuSans-39" transform="translate(231.391602 39.046875)scale(0.7)"/>
       <use xlink:href="#DejaVuSans-38" transform="translate(275.927734 39.046875)scale(0.7)"/>
      </g>
     </g>
    </g>
    <g id="xtick_4">
     <g id="line2d_7">
      <path d="M 344.945214 158.4 
L 344.945214 7.2 
" clip-path="url(#pab34efd456)" style="fill: none; stroke: #b0b0b0; stroke-width: 0.8; stroke-linecap: square"/>
     </g>
     <g id="line2d_8">
      <g>
       <use xlink:href="#ma5f1cd3619" x="344.945214" y="158.4" style="stroke: #000000; stroke-width: 0.8"/>
      </g>
     </g>
     <g id="text_4">
      <!-- $\mathdefault{10^{-161}}$ -->
      <g transform="translate(328.745214 172.998437)scale(0.1 -0.1)">
       <defs>
        <path id="DejaVuSans-36" d="M 2113 2584 
Q 1688 2584 1439 2293 
Q 1191 2003 1191 1497 
Q 1191 994 1439 701 
Q 1688 409 2113 409 
Q 2538 409 2786 701 
Q 3034 994 3034 1497 
Q 3034 2003 2786 2293 
Q 2538 2584 2113 2584 
z
M 3366 4563 
L 3366 3988 
Q 3128 4100 2886 4159 
Q 2644 4219 2406 4219 
Q 1781 4219 1451 3797 
Q 1122 3375 1075 2522 
Q 1259 2794 1537 2939 
Q 1816 3084 2150 3084 
Q 2853 3084 3261 2657 
Q 3669 2231 3669 1497 
Q 3669 778 3244 343 
Q 2819 -91 2113 -91 
Q 1303 -91 875 529 
Q 447 1150 447 2328 
Q 447 3434 972 4092 
Q 1497 4750 2381 4750 
Q 2619 4750 2861 4703 
Q 3103 4656 3366 4563 
z
" transform="scale(0.015625)"/>
       </defs>
       <use xlink:href="#DejaVuSans-31" transform="translate(0 0.765625)"/>
       <use xlink:href="#DejaVuSans-30" transform="translate(63.623047 0.765625)"/>
       <use xlink:href="#DejaVuSans-2212" transform="translate(128.203125 39.046875)scale(0.7)"/>
       <use xlink:href="#DejaVuSans-31" transform="translate(186.855469 39.046875)scale(0.7)"/>
       <use xlink:href="#DejaVuSans-36" transform="translate(231.391602 39.046875)scale(0.7)"/>
       <use xlink:href="#DejaVuSans-31" transform="translate(275.927734 39.046875)scale(0.7)"/>
      </g>
     </g>
    </g>
    <g id="xtick_5">
     <g id="line2d_9">
      <path d="M 421.41582 158.4 
L 421.41582 7.2 
" clip-path="url(#pab34efd456)" style="fill: none; stroke: #b0b0b0; stroke-width: 0.8; stroke-linecap: square"/>
     </g>
     <g id="line2d_10">
      <g>
       <use xlink:href="#ma5f1cd3619" x="421.41582" y="158.4" style="stroke: #000000; stroke-width: 0.8"/>
      </g>
     </g>
     <g id="text_5">
      <!-- $\mathdefault{10^{-124}}$ -->
      <g transform="translate(405.21582 172.998437)scale(0.1 -0.1)">
       <defs>
        <path id="DejaVuSans-34" d="M 2419 4116 
L 825 1625 
L 2419 1625 
L 2419 4116 
z
M 2253 4666 
L 3047 4666 
L 3047 1625 
L 3713 1625 
L 3713 1100 
L 3047 1100 
L 3047 0 
L 2419 0 
L 2419 1100 
L 313 1100 
L 313 1709 
L 2253 4666 
z
" transform="scale(0.015625)"/>
       </defs>
       <use xlink:href="#DejaVuSans-31" transform="translate(0 0.765625)"/>
       <use xlink:href="#DejaVuSans-30" transform="translate(63.623047 0.765625)"/>
       <use xlink:href="#DejaVuSans-2212" transform="translate(128.203125 39.046875)scale(0.7)"/>
       <use xlink:href="#DejaVuSans-31" transform="translate(186.855469 39.046875)scale(0.7)"/>
       <use xlink:href="#DejaVuSans-32" transform="translate(231.391602 39.046875)scale(0.7)"/>
       <use xlink:href="#DejaVuSans-34" transform="translate(275.927734 39.046875)scale(0.7)"/>
      </g>
     </g>
    </g>
    <g id="xtick_6">
     <g id="line2d_11">
      <path d="M 497.886426 158.4 
L 497.886426 7.2 
" clip-path="url(#pab34efd456)" style="fill: none; stroke: #b0b0b0; stroke-width: 0.8; stroke-linecap: square"/>
     </g>
     <g id="line2d_12">
      <g>
       <use xlink:href="#ma5f1cd3619" x="497.886426" y="158.4" style="stroke: #000000; stroke-width: 0.8"/>
      </g>
     </g>
     <g id="text_6">
      <!-- $\mathdefault{10^{-87}}$ -->
      <g transform="translate(483.936426 172.998437)scale(0.1 -0.1)">
       <use xlink:href="#DejaVuSans-31" transform="translate(0 0.765625)"/>
       <use xlink:href="#DejaVuSans-30" transform="translate(63.623047 0.765625)"/>
       <use xlink:href="#DejaVuSans-2212" transform="translate(128.203125 39.046875)scale(0.7)"/>
       <use xlink:href="#DejaVuSans-38" transform="translate(186.855469 39.046875)scale(0.7)"/>
       <use xlink:href="#DejaVuSans-37" transform="translate(231.391602 39.046875)scale(0.7)"/>
      </g>
     </g>
    </g>
    <g id="xtick_7">
     <g id="line2d_13">
      <path d="M 574.357032 158.4 
L 574.357032 7.2 
" clip-path="url(#pab34efd456)" style="fill: none; stroke: #b0b0b0; stroke-width: 0.8; stroke-linecap: square"/>
     </g>
     <g id="line2d_14">
      <g>
       <use xlink:href="#ma5f1cd3619" x="574.357032" y="158.4" style="stroke: #000000; stroke-width: 0.8"/>
      </g>
     </g>
     <g id="text_7">
      <!-- $\mathdefault{10^{-50}}$ -->
      <g transform="translate(560.407032 172.998437)scale(0.1 -0.1)">
       <use xlink:href="#DejaVuSans-31" transform="translate(0 0.765625)"/>
       <use xlink:href="#DejaVuSans-30" transform="translate(63.623047 0.765625)"/>
       <use xlink:href="#DejaVuSans-2212" transform="translate(128.203125 39.046875)scale(0.7)"/>
       <use xlink:href="#DejaVuSans-35" transform="translate(186.855469 39.046875)scale(0.7)"/>
       <use xlink:href="#DejaVuSans-30" transform="translate(231.391602 39.046875)scale(0.7)"/>
      </g>
     </g>
    </g>
    <g id="xtick_8">
     <g id="line2d_15">
      <path d="M 650.827638 158.4 
L 650.827638 7.2 
" clip-path="url(#pab34efd456)" style="fill: none; stroke: #b0b0b0; stroke-width: 0.8; stroke-linecap: square"/>
     </g>
     <g id="line2d_16">
      <g>
       <use xlink:href="#ma5f1cd3619" x="650.827638" y="158.4" style="stroke: #000000; stroke-width: 0.8"/>
      </g>
     </g>
     <g id="text_8">
      <!-- $\mathdefault{10^{-13}}$ -->
      <g transform="translate(636.877638 172.998437)scale(0.1 -0.1)">
       <use xlink:href="#DejaVuSans-31" transform="translate(0 0.765625)"/>
       <use xlink:href="#DejaVuSans-30" transform="translate(63.623047 0.765625)"/>
       <use xlink:href="#DejaVuSans-2212" transform="translate(128.203125 39.046875)scale(0.7)"/>
       <use xlink:href="#DejaVuSans-31" transform="translate(186.855469 39.046875)scale(0.7)"/>
       <use xlink:href="#DejaVuSans-33" transform="translate(231.391602 39.046875)scale(0.7)"/>
      </g>
     </g>
    </g>
   </g>
   <g id="matplotlib.axis_2">
    <g id="ytick_1">
     <g id="line2d_17">
      <path d="M 40.603125 140.438627 
L 710.203125 140.438627 
" clip-path="url(#pab34efd456)" style="fill: none; stroke: #b0b0b0; stroke-width: 0.8; stroke-linecap: square"/>
     </g>
     <g id="line2d_18">
      <defs>
       <path id="m00b180cdfc" d="M 0 0 
L -3.5 0 
" style="stroke: #000000; stroke-width: 0.8"/>
      </defs>
      <g>
       <use xlink:href="#m00b180cdfc" x="40.603125" y="140.438627" style="stroke: #000000; stroke-width: 0.8"/>
      </g>
     </g>
     <g id="text_9">
      <!-- 0 -->
      <g transform="translate(27.240625 144.237845)scale(0.1 -0.1)">
       <use xlink:href="#DejaVuSans-30"/>
      </g>
     </g>
    </g>
    <g id="ytick_2">
     <g id="line2d_19">
      <path d="M 40.603125 116.658229 
L 710.203125 116.658229 
" clip-path="url(#pab34efd456)" style="fill: none; stroke: #b0b0b0; stroke-width: 0.8; stroke-linecap: square"/>
     </g>
     <g id="line2d_20">
      <g>
       <use xlink:href="#m00b180cdfc" x="40.603125" y="116.658229" style="stroke: #000000; stroke-width: 0.8"/>
      </g>
     </g>
     <g id="text_10">
      <!-- 5 -->
      <g transform="translate(27.240625 120.457448)scale(0.1 -0.1)">
       <use xlink:href="#DejaVuSans-35"/>
      </g>
     </g>
    </g>
    <g id="ytick_3">
     <g id="line2d_21">
      <path d="M 40.603125 92.877831 
L 710.203125 92.877831 
" clip-path="url(#pab34efd456)" style="fill: none; stroke: #b0b0b0; stroke-width: 0.8; stroke-linecap: square"/>
     </g>
     <g id="line2d_22">
      <g>
       <use xlink:href="#m00b180cdfc" x="40.603125" y="92.877831" style="stroke: #000000; stroke-width: 0.8"/>
      </g>
     </g>
     <g id="text_11">
      <!-- 10 -->
      <g transform="translate(20.878125 96.67705)scale(0.1 -0.1)">
       <use xlink:href="#DejaVuSans-31"/>
       <use xlink:href="#DejaVuSans-30" x="63.623047"/>
      </g>
     </g>
    </g>
    <g id="ytick_4">
     <g id="line2d_23">
      <path d="M 40.603125 69.097433 
L 710.203125 69.097433 
" clip-path="url(#pab34efd456)" style="fill: none; stroke: #b0b0b0; stroke-width: 0.8; stroke-linecap: square"/>
     </g>
     <g id="line2d_24">
      <g>
       <use xlink:href="#m00b180cdfc" x="40.603125" y="69.097433" style="stroke: #000000; stroke-width: 0.8"/>
      </g>
     </g>
     <g id="text_12">
      <!-- 15 -->
      <g transform="translate(20.878125 72.896652)scale(0.1 -0.1)">
       <use xlink:href="#DejaVuSans-31"/>
       <use xlink:href="#DejaVuSans-35" x="63.623047"/>
      </g>
     </g>
    </g>
    <g id="ytick_5">
     <g id="line2d_25">
      <path d="M 40.603125 45.317036 
L 710.203125 45.317036 
" clip-path="url(#pab34efd456)" style="fill: none; stroke: #b0b0b0; stroke-width: 0.8; stroke-linecap: square"/>
     </g>
     <g id="line2d_26">
      <g>
       <use xlink:href="#m00b180cdfc" x="40.603125" y="45.317036" style="stroke: #000000; stroke-width: 0.8"/>
      </g>
     </g>
     <g id="text_13">
      <!-- 20 -->
      <g transform="translate(20.878125 49.116255)scale(0.1 -0.1)">
       <use xlink:href="#DejaVuSans-32"/>
       <use xlink:href="#DejaVuSans-30" x="63.623047"/>
      </g>
     </g>
    </g>
    <g id="ytick_6">
     <g id="line2d_27">
      <path d="M 40.603125 21.536638 
L 710.203125 21.536638 
" clip-path="url(#pab34efd456)" style="fill: none; stroke: #b0b0b0; stroke-width: 0.8; stroke-linecap: square"/>
     </g>
     <g id="line2d_28">
      <g>
       <use xlink:href="#m00b180cdfc" x="40.603125" y="21.536638" style="stroke: #000000; stroke-width: 0.8"/>
      </g>
     </g>
     <g id="text_14">
      <!-- 25 -->
      <g transform="translate(20.878125 25.335857)scale(0.1 -0.1)">
       <use xlink:href="#DejaVuSans-32"/>
       <use xlink:href="#DejaVuSans-35" x="63.623047"/>
      </g>
     </g>
    </g>
    <g id="text_15">
     <!-- actual -->
     <g transform="translate(14.798438 98.195312)rotate(-90)scale(0.1 -0.1)">
      <defs>
       <path id="DejaVuSans-61" d="M 2194 1759 
Q 1497 1759 1228 1600 
Q 959 1441 959 1056 
Q 959 750 1161 570 
Q 1363 391 1709 391 
Q 2188 391 2477 730 
Q 2766 1069 2766 1631 
L 2766 1759 
L 2194 1759 
z
M 3341 1997 
L 3341 0 
L 2766 0 
L 2766 531 
Q 2569 213 2275 61 
Q 1981 -91 1556 -91 
Q 1019 -91 701 211 
Q 384 513 384 1019 
Q 384 1609 779 1909 
Q 1175 2209 1959 2209 
L 2766 2209 
L 2766 2266 
Q 2766 2663 2505 2880 
Q 2244 3097 1772 3097 
Q 1472 3097 1187 3025 
Q 903 2953 641 2809 
L 641 3341 
Q 956 3463 1253 3523 
Q 1550 3584 1831 3584 
Q 2591 3584 2966 3190 
Q 3341 2797 3341 1997 
z
" transform="scale(0.015625)"/>
       <path id="DejaVuSans-63" d="M 3122 3366 
L 3122 2828 
Q 2878 2963 2633 3030 
Q 2388 3097 2138 3097 
Q 1578 3097 1268 2742 
Q 959 2388 959 1747 
Q 959 1106 1268 751 
Q 1578 397 2138 397 
Q 2388 397 2633 464 
Q 2878 531 3122 666 
L 3122 134 
Q 2881 22 2623 -34 
Q 2366 -91 2075 -91 
Q 1284 -91 818 406 
Q 353 903 353 1747 
Q 353 2603 823 3093 
Q 1294 3584 2113 3584 
Q 2378 3584 2631 3529 
Q 2884 3475 3122 3366 
z
" transform="scale(0.015625)"/>
       <path id="DejaVuSans-74" d="M 1172 4494 
L 1172 3500 
L 2356 3500 
L 2356 3053 
L 1172 3053 
L 1172 1153 
Q 1172 725 1289 603 
Q 1406 481 1766 481 
L 2356 481 
L 2356 0 
L 1766 0 
Q 1100 0 847 248 
Q 594 497 594 1153 
L 594 3053 
L 172 3053 
L 172 3500 
L 594 3500 
L 594 4494 
L 1172 4494 
z
" transform="scale(0.015625)"/>
       <path id="DejaVuSans-75" d="M 544 1381 
L 544 3500 
L 1119 3500 
L 1119 1403 
Q 1119 906 1312 657 
Q 1506 409 1894 409 
Q 2359 409 2629 706 
Q 2900 1003 2900 1516 
L 2900 3500 
L 3475 3500 
L 3475 0 
L 2900 0 
L 2900 538 
Q 2691 219 2414 64 
Q 2138 -91 1772 -91 
Q 1169 -91 856 284 
Q 544 659 544 1381 
z
M 1991 3584 
L 1991 3584 
z
" transform="scale(0.015625)"/>
       <path id="DejaVuSans-6c" d="M 603 4863 
L 1178 4863 
L 1178 0 
L 603 0 
L 603 4863 
z
" transform="scale(0.015625)"/>
      </defs>
      <use xlink:href="#DejaVuSans-61"/>
      <use xlink:href="#DejaVuSans-63" x="61.279297"/>
      <use xlink:href="#DejaVuSans-74" x="116.259766"/>
      <use xlink:href="#DejaVuSans-75" x="155.46875"/>
      <use xlink:href="#DejaVuSans-61" x="218.847656"/>
      <use xlink:href="#DejaVuSans-6c" x="280.126953"/>
     </g>
    </g>
   </g>
   <g id="line2d_29">
    <path d="M 40.603125 14.072727 
L 92.864624 19.392108 
L 142.01532 24.617212 
L 188.055212 29.734696 
L 230.984301 34.728938 
L 270.802586 39.581645 
L 308.132229 44.352868 
L 342.973228 49.029852 
L 375.325585 53.597379 
L 405.189299 58.037265 
L 432.56437 62.327774 
L 458.072959 66.548775 
L 481.715066 70.687647 
L 502.86853 74.60999 
L 522.777672 78.526953 
L 540.820333 82.302808 
L 556.996511 85.908336 
L 571.928368 89.460558 
L 585.615904 92.947477 
L 597.436957 96.177119 
L 608.63585 99.468123 
L 618.590421 102.629817 
L 627.300671 105.627207 
L 634.7666 108.414636 
L 641.610367 111.19698 
L 647.831974 113.972122 
L 652.80926 116.41446 
L 657.164385 118.767313 
L 660.897349 120.998685 
L 664.630314 123.504274 
L 667.741117 125.893681 
L 670.22976 128.101829 
L 672.460183 130.433465 
L 674.163015 132.585107 
L 675.44038 134.571442 
L 676.430079 136.521677 
L 677.177689 138.486103 
L 677.71305 140.520958 
L 678.06371 142.743279 
L 678.254293 145.443264 
L 678.315655 149.904502 
L 678.317411 151.527273 
L 678.317411 151.527273 
" clip-path="url(#pab34efd456)" style="fill: none; stroke: #1f77b4; stroke-width: 1.5; stroke-linecap: square"/>
   </g>
   <g id="patch_3">
    <path d="M 40.603125 158.4 
L 40.603125 7.2 
" style="fill: none; stroke: #000000; stroke-width: 0.8; stroke-linejoin: miter; stroke-linecap: square"/>
   </g>
   <g id="patch_4">
    <path d="M 710.203125 158.4 
L 710.203125 7.2 
" style="fill: none; stroke: #000000; stroke-width: 0.8; stroke-linejoin: miter; stroke-linecap: square"/>
   </g>
   <g id="patch_5">
    <path d="M 40.603125 158.4 
L 710.203125 158.4 
" style="fill: none; stroke: #000000; stroke-width: 0.8; stroke-linejoin: miter; stroke-linecap: square"/>
   </g>
   <g id="patch_6">
    <path d="M 40.603125 7.2 
L 710.203125 7.2 
" style="fill: none; stroke: #000000; stroke-width: 0.8; stroke-linejoin: miter; stroke-linecap: square"/>
   </g>
  </g>
  <g id="axes_2">
   <g id="patch_7">
    <path d="M 40.603125 339.84 
L 710.203125 339.84 
L 710.203125 188.64 
L 40.603125 188.64 
z
" style="fill: #ffffff"/>
   </g>
   <g id="matplotlib.axis_3">
    <g id="xtick_9">
     <g id="line2d_30">
      <path d="M 115.533397 339.84 
L 115.533397 188.64 
" clip-path="url(#p8c666127d9)" style="fill: none; stroke: #b0b0b0; stroke-width: 0.8; stroke-linecap: square"/>
     </g>
     <g id="line2d_31">
      <g>
       <use xlink:href="#ma5f1cd3619" x="115.533397" y="339.84" style="stroke: #000000; stroke-width: 0.8"/>
      </g>
     </g>
     <g id="text_16">
      <!-- $\mathdefault{10^{-272}}$ -->
      <g transform="translate(99.333397 354.438437)scale(0.1 -0.1)">
       <use xlink:href="#DejaVuSans-31" transform="translate(0 0.765625)"/>
       <use xlink:href="#DejaVuSans-30" transform="translate(63.623047 0.765625)"/>
       <use xlink:href="#DejaVuSans-2212" transform="translate(128.203125 39.046875)scale(0.7)"/>
       <use xlink:href="#DejaVuSans-32" transform="translate(186.855469 39.046875)scale(0.7)"/>
       <use xlink:href="#DejaVuSans-37" transform="translate(231.391602 39.046875)scale(0.7)"/>
       <use xlink:href="#DejaVuSans-32" transform="translate(275.927734 39.046875)scale(0.7)"/>
      </g>
     </g>
    </g>
    <g id="xtick_10">
     <g id="line2d_32">
      <path d="M 192.004003 339.84 
L 192.004003 188.64 
" clip-path="url(#p8c666127d9)" style="fill: none; stroke: #b0b0b0; stroke-width: 0.8; stroke-linecap: square"/>
     </g>
     <g id="line2d_33">
      <g>
       <use xlink:href="#ma5f1cd3619" x="192.004003" y="339.84" style="stroke: #000000; stroke-width: 0.8"/>
      </g>
     </g>
     <g id="text_17">
      <!-- $\mathdefault{10^{-235}}$ -->
      <g transform="translate(175.804003 354.438437)scale(0.1 -0.1)">
       <use xlink:href="#DejaVuSans-31" transform="translate(0 0.765625)"/>
       <use xlink:href="#DejaVuSans-30" transform="translate(63.623047 0.765625)"/>
       <use xlink:href="#DejaVuSans-2212" transform="translate(128.203125 39.046875)scale(0.7)"/>
       <use xlink:href="#DejaVuSans-32" transform="translate(186.855469 39.046875)scale(0.7)"/>
       <use xlink:href="#DejaVuSans-33" transform="translate(231.391602 39.046875)scale(0.7)"/>
       <use xlink:href="#DejaVuSans-35" transform="translate(275.927734 39.046875)scale(0.7)"/>
      </g>
     </g>
    </g>
    <g id="xtick_11">
     <g id="line2d_34">
      <path d="M 268.474609 339.84 
L 268.474609 188.64 
" clip-path="url(#p8c666127d9)" style="fill: none; stroke: #b0b0b0; stroke-width: 0.8; stroke-linecap: square"/>
     </g>
     <g id="line2d_35">
      <g>
       <use xlink:href="#ma5f1cd3619" x="268.474609" y="339.84" style="stroke: #000000; stroke-width: 0.8"/>
      </g>
     </g>
     <g id="text_18">
      <!-- $\mathdefault{10^{-198}}$ -->
      <g transform="translate(252.274609 354.438437)scale(0.1 -0.1)">
       <use xlink:href="#DejaVuSans-31" transform="translate(0 0.765625)"/>
       <use xlink:href="#DejaVuSans-30" transform="translate(63.623047 0.765625)"/>
       <use xlink:href="#DejaVuSans-2212" transform="translate(128.203125 39.046875)scale(0.7)"/>
       <use xlink:href="#DejaVuSans-31" transform="translate(186.855469 39.046875)scale(0.7)"/>
       <use xlink:href="#DejaVuSans-39" transform="translate(231.391602 39.046875)scale(0.7)"/>
       <use xlink:href="#DejaVuSans-38" transform="translate(275.927734 39.046875)scale(0.7)"/>
      </g>
     </g>
    </g>
    <g id="xtick_12">
     <g id="line2d_36">
      <path d="M 344.945214 339.84 
L 344.945214 188.64 
" clip-path="url(#p8c666127d9)" style="fill: none; stroke: #b0b0b0; stroke-width: 0.8; stroke-linecap: square"/>
     </g>
     <g id="line2d_37">
      <g>
       <use xlink:href="#ma5f1cd3619" x="344.945214" y="339.84" style="stroke: #000000; stroke-width: 0.8"/>
      </g>
     </g>
     <g id="text_19">
      <!-- $\mathdefault{10^{-161}}$ -->
      <g transform="translate(328.745214 354.438437)scale(0.1 -0.1)">
       <use xlink:href="#DejaVuSans-31" transform="translate(0 0.765625)"/>
       <use xlink:href="#DejaVuSans-30" transform="translate(63.623047 0.765625)"/>
       <use xlink:href="#DejaVuSans-2212" transform="translate(128.203125 39.046875)scale(0.7)"/>
       <use xlink:href="#DejaVuSans-31" transform="translate(186.855469 39.046875)scale(0.7)"/>
       <use xlink:href="#DejaVuSans-36" transform="translate(231.391602 39.046875)scale(0.7)"/>
       <use xlink:href="#DejaVuSans-31" transform="translate(275.927734 39.046875)scale(0.7)"/>
      </g>
     </g>
    </g>
    <g id="xtick_13">
     <g id="line2d_38">
      <path d="M 421.41582 339.84 
L 421.41582 188.64 
" clip-path="url(#p8c666127d9)" style="fill: none; stroke: #b0b0b0; stroke-width: 0.8; stroke-linecap: square"/>
     </g>
     <g id="line2d_39">
      <g>
       <use xlink:href="#ma5f1cd3619" x="421.41582" y="339.84" style="stroke: #000000; stroke-width: 0.8"/>
      </g>
     </g>
     <g id="text_20">
      <!-- $\mathdefault{10^{-124}}$ -->
      <g transform="translate(405.21582 354.438437)scale(0.1 -0.1)">
       <use xlink:href="#DejaVuSans-31" transform="translate(0 0.765625)"/>
       <use xlink:href="#DejaVuSans-30" transform="translate(63.623047 0.765625)"/>
       <use xlink:href="#DejaVuSans-2212" transform="translate(128.203125 39.046875)scale(0.7)"/>
       <use xlink:href="#DejaVuSans-31" transform="translate(186.855469 39.046875)scale(0.7)"/>
       <use xlink:href="#DejaVuSans-32" transform="translate(231.391602 39.046875)scale(0.7)"/>
       <use xlink:href="#DejaVuSans-34" transform="translate(275.927734 39.046875)scale(0.7)"/>
      </g>
     </g>
    </g>
    <g id="xtick_14">
     <g id="line2d_40">
      <path d="M 497.886426 339.84 
L 497.886426 188.64 
" clip-path="url(#p8c666127d9)" style="fill: none; stroke: #b0b0b0; stroke-width: 0.8; stroke-linecap: square"/>
     </g>
     <g id="line2d_41">
      <g>
       <use xlink:href="#ma5f1cd3619" x="497.886426" y="339.84" style="stroke: #000000; stroke-width: 0.8"/>
      </g>
     </g>
     <g id="text_21">
      <!-- $\mathdefault{10^{-87}}$ -->
      <g transform="translate(483.936426 354.438437)scale(0.1 -0.1)">
       <use xlink:href="#DejaVuSans-31" transform="translate(0 0.765625)"/>
       <use xlink:href="#DejaVuSans-30" transform="translate(63.623047 0.765625)"/>
       <use xlink:href="#DejaVuSans-2212" transform="translate(128.203125 39.046875)scale(0.7)"/>
       <use xlink:href="#DejaVuSans-38" transform="translate(186.855469 39.046875)scale(0.7)"/>
       <use xlink:href="#DejaVuSans-37" transform="translate(231.391602 39.046875)scale(0.7)"/>
      </g>
     </g>
    </g>
    <g id="xtick_15">
     <g id="line2d_42">
      <path d="M 574.357032 339.84 
L 574.357032 188.64 
" clip-path="url(#p8c666127d9)" style="fill: none; stroke: #b0b0b0; stroke-width: 0.8; stroke-linecap: square"/>
     </g>
     <g id="line2d_43">
      <g>
       <use xlink:href="#ma5f1cd3619" x="574.357032" y="339.84" style="stroke: #000000; stroke-width: 0.8"/>
      </g>
     </g>
     <g id="text_22">
      <!-- $\mathdefault{10^{-50}}$ -->
      <g transform="translate(560.407032 354.438437)scale(0.1 -0.1)">
       <use xlink:href="#DejaVuSans-31" transform="translate(0 0.765625)"/>
       <use xlink:href="#DejaVuSans-30" transform="translate(63.623047 0.765625)"/>
       <use xlink:href="#DejaVuSans-2212" transform="translate(128.203125 39.046875)scale(0.7)"/>
       <use xlink:href="#DejaVuSans-35" transform="translate(186.855469 39.046875)scale(0.7)"/>
       <use xlink:href="#DejaVuSans-30" transform="translate(231.391602 39.046875)scale(0.7)"/>
      </g>
     </g>
    </g>
    <g id="xtick_16">
     <g id="line2d_44">
      <path d="M 650.827638 339.84 
L 650.827638 188.64 
" clip-path="url(#p8c666127d9)" style="fill: none; stroke: #b0b0b0; stroke-width: 0.8; stroke-linecap: square"/>
     </g>
     <g id="line2d_45">
      <g>
       <use xlink:href="#ma5f1cd3619" x="650.827638" y="339.84" style="stroke: #000000; stroke-width: 0.8"/>
      </g>
     </g>
     <g id="text_23">
      <!-- $\mathdefault{10^{-13}}$ -->
      <g transform="translate(636.877638 354.438437)scale(0.1 -0.1)">
       <use xlink:href="#DejaVuSans-31" transform="translate(0 0.765625)"/>
       <use xlink:href="#DejaVuSans-30" transform="translate(63.623047 0.765625)"/>
       <use xlink:href="#DejaVuSans-2212" transform="translate(128.203125 39.046875)scale(0.7)"/>
       <use xlink:href="#DejaVuSans-31" transform="translate(186.855469 39.046875)scale(0.7)"/>
       <use xlink:href="#DejaVuSans-33" transform="translate(231.391602 39.046875)scale(0.7)"/>
      </g>
     </g>
    </g>
   </g>
   <g id="matplotlib.axis_4">
    <g id="ytick_7">
     <g id="line2d_46">
      <path d="M 40.603125 332.967273 
L 710.203125 332.967273 
" clip-path="url(#p8c666127d9)" style="fill: none; stroke: #b0b0b0; stroke-width: 0.8; stroke-linecap: square"/>
     </g>
     <g id="line2d_47">
      <g>
       <use xlink:href="#m00b180cdfc" x="40.603125" y="332.967273" style="stroke: #000000; stroke-width: 0.8"/>
      </g>
     </g>
     <g id="text_24">
      <!-- 0 -->
      <g transform="translate(27.240625 336.766491)scale(0.1 -0.1)">
       <use xlink:href="#DejaVuSans-30"/>
      </g>
     </g>
    </g>
    <g id="ytick_8">
     <g id="line2d_48">
      <path d="M 40.603125 305.661682 
L 710.203125 305.661682 
" clip-path="url(#p8c666127d9)" style="fill: none; stroke: #b0b0b0; stroke-width: 0.8; stroke-linecap: square"/>
     </g>
     <g id="line2d_49">
      <g>
       <use xlink:href="#m00b180cdfc" x="40.603125" y="305.661682" style="stroke: #000000; stroke-width: 0.8"/>
      </g>
     </g>
     <g id="text_25">
      <!-- 1 -->
      <g transform="translate(27.240625 309.460901)scale(0.1 -0.1)">
       <use xlink:href="#DejaVuSans-31"/>
      </g>
     </g>
    </g>
    <g id="ytick_9">
     <g id="line2d_50">
      <path d="M 40.603125 278.356092 
L 710.203125 278.356092 
" clip-path="url(#p8c666127d9)" style="fill: none; stroke: #b0b0b0; stroke-width: 0.8; stroke-linecap: square"/>
     </g>
     <g id="line2d_51">
      <g>
       <use xlink:href="#m00b180cdfc" x="40.603125" y="278.356092" style="stroke: #000000; stroke-width: 0.8"/>
      </g>
     </g>
     <g id="text_26">
      <!-- 2 -->
      <g transform="translate(27.240625 282.155311)scale(0.1 -0.1)">
       <use xlink:href="#DejaVuSans-32"/>
      </g>
     </g>
    </g>
    <g id="ytick_10">
     <g id="line2d_52">
      <path d="M 40.603125 251.050501 
L 710.203125 251.050501 
" clip-path="url(#p8c666127d9)" style="fill: none; stroke: #b0b0b0; stroke-width: 0.8; stroke-linecap: square"/>
     </g>
     <g id="line2d_53">
      <g>
       <use xlink:href="#m00b180cdfc" x="40.603125" y="251.050501" style="stroke: #000000; stroke-width: 0.8"/>
      </g>
     </g>
     <g id="text_27">
      <!-- 3 -->
      <g transform="translate(27.240625 254.84972)scale(0.1 -0.1)">
       <use xlink:href="#DejaVuSans-33"/>
      </g>
     </g>
    </g>
    <g id="ytick_11">
     <g id="line2d_54">
      <path d="M 40.603125 223.744911 
L 710.203125 223.744911 
" clip-path="url(#p8c666127d9)" style="fill: none; stroke: #b0b0b0; stroke-width: 0.8; stroke-linecap: square"/>
     </g>
     <g id="line2d_55">
      <g>
       <use xlink:href="#m00b180cdfc" x="40.603125" y="223.744911" style="stroke: #000000; stroke-width: 0.8"/>
      </g>
     </g>
     <g id="text_28">
      <!-- 4 -->
      <g transform="translate(27.240625 227.54413)scale(0.1 -0.1)">
       <use xlink:href="#DejaVuSans-34"/>
      </g>
     </g>
    </g>
    <g id="ytick_12">
     <g id="line2d_56">
      <path d="M 40.603125 196.43932 
L 710.203125 196.43932 
" clip-path="url(#p8c666127d9)" style="fill: none; stroke: #b0b0b0; stroke-width: 0.8; stroke-linecap: square"/>
     </g>
     <g id="line2d_57">
      <g>
       <use xlink:href="#m00b180cdfc" x="40.603125" y="196.43932" style="stroke: #000000; stroke-width: 0.8"/>
      </g>
     </g>
     <g id="text_29">
      <!-- 5 -->
      <g transform="translate(27.240625 200.238539)scale(0.1 -0.1)">
       <use xlink:href="#DejaVuSans-35"/>
      </g>
     </g>
    </g>
    <g id="text_30">
     <!-- error(rate) -->
     <g transform="translate(21.160938 290.400156)rotate(-90)scale(0.1 -0.1)">
      <defs>
       <path id="DejaVuSans-65" d="M 3597 1894 
L 3597 1613 
L 953 1613 
Q 991 1019 1311 708 
Q 1631 397 2203 397 
Q 2534 397 2845 478 
Q 3156 559 3463 722 
L 3463 178 
Q 3153 47 2828 -22 
Q 2503 -91 2169 -91 
Q 1331 -91 842 396 
Q 353 884 353 1716 
Q 353 2575 817 3079 
Q 1281 3584 2069 3584 
Q 2775 3584 3186 3129 
Q 3597 2675 3597 1894 
z
M 3022 2063 
Q 3016 2534 2758 2815 
Q 2500 3097 2075 3097 
Q 1594 3097 1305 2825 
Q 1016 2553 972 2059 
L 3022 2063 
z
" transform="scale(0.015625)"/>
       <path id="DejaVuSans-72" d="M 2631 2963 
Q 2534 3019 2420 3045 
Q 2306 3072 2169 3072 
Q 1681 3072 1420 2755 
Q 1159 2438 1159 1844 
L 1159 0 
L 581 0 
L 581 3500 
L 1159 3500 
L 1159 2956 
Q 1341 3275 1631 3429 
Q 1922 3584 2338 3584 
Q 2397 3584 2469 3576 
Q 2541 3569 2628 3553 
L 2631 2963 
z
" transform="scale(0.015625)"/>
       <path id="DejaVuSans-6f" d="M 1959 3097 
Q 1497 3097 1228 2736 
Q 959 2375 959 1747 
Q 959 1119 1226 758 
Q 1494 397 1959 397 
Q 2419 397 2687 759 
Q 2956 1122 2956 1747 
Q 2956 2369 2687 2733 
Q 2419 3097 1959 3097 
z
M 1959 3584 
Q 2709 3584 3137 3096 
Q 3566 2609 3566 1747 
Q 3566 888 3137 398 
Q 2709 -91 1959 -91 
Q 1206 -91 779 398 
Q 353 888 353 1747 
Q 353 2609 779 3096 
Q 1206 3584 1959 3584 
z
" transform="scale(0.015625)"/>
       <path id="DejaVuSans-28" d="M 1984 4856 
Q 1566 4138 1362 3434 
Q 1159 2731 1159 2009 
Q 1159 1288 1364 580 
Q 1569 -128 1984 -844 
L 1484 -844 
Q 1016 -109 783 600 
Q 550 1309 550 2009 
Q 550 2706 781 3412 
Q 1013 4119 1484 4856 
L 1984 4856 
z
" transform="scale(0.015625)"/>
       <path id="DejaVuSans-29" d="M 513 4856 
L 1013 4856 
Q 1481 4119 1714 3412 
Q 1947 2706 1947 2009 
Q 1947 1309 1714 600 
Q 1481 -109 1013 -844 
L 513 -844 
Q 928 -128 1133 580 
Q 1338 1288 1338 2009 
Q 1338 2731 1133 3434 
Q 928 4138 513 4856 
z
" transform="scale(0.015625)"/>
      </defs>
      <use xlink:href="#DejaVuSans-65"/>
      <use xlink:href="#DejaVuSans-72" x="61.523438"/>
      <use xlink:href="#DejaVuSans-72" x="100.886719"/>
      <use xlink:href="#DejaVuSans-6f" x="139.75"/>
      <use xlink:href="#DejaVuSans-72" x="200.931641"/>
      <use xlink:href="#DejaVuSans-28" x="242.044922"/>
      <use xlink:href="#DejaVuSans-72" x="281.058594"/>
      <use xlink:href="#DejaVuSans-61" x="322.171875"/>
      <use xlink:href="#DejaVuSans-74" x="383.451172"/>
      <use xlink:href="#DejaVuSans-65" x="422.660156"/>
      <use xlink:href="#DejaVuSans-29" x="484.183594"/>
     </g>
    </g>
    <g id="text_31">
     <!-- 1e−16 -->
     <g transform="translate(40.603125 185.64)scale(0.1 -0.1)">
      <use xlink:href="#DejaVuSans-31"/>
      <use xlink:href="#DejaVuSans-65" x="63.623047"/>
      <use xlink:href="#DejaVuSans-2212" x="125.146484"/>
      <use xlink:href="#DejaVuSans-31" x="208.935547"/>
      <use xlink:href="#DejaVuSans-36" x="272.558594"/>
     </g>
    </g>
   </g>
   <g id="line2d_58">
    <path d="M 40.603125 307.683931 
L 41.225286 285.702069 
L 41.847446 331.603007 
L 43.091768 308.001827 
L 43.713929 304.894697 
L 44.336089 293.608322 
L 44.95825 317.337384 
L 46.202571 301.983304 
L 46.824732 329.918052 
L 47.446893 329.146541 
L 48.069053 242.390221 
L 48.691214 313.609641 
L 49.313375 245.597844 
L 49.935536 299.102639 
L 50.557696 331.087685 
L 51.179857 320.8959 
L 51.802018 285.085559 
L 52.424178 320.67733 
L 53.046339 312.955567 
L 53.6685 326.857357 
L 54.290661 261.206012 
L 54.912821 308.826948 
L 55.534982 331.454491 
L 56.157143 261.813311 
L 56.779303 309.056663 
L 57.401464 309.879427 
L 58.023625 311.795396 
L 58.645785 316.941218 
L 59.267946 313.627925 
L 59.890107 315.159172 
L 60.512268 295.532231 
L 61.134428 254.833769 
L 61.756589 316.454091 
L 62.37875 312.591783 
L 63.00091 280.866648 
L 63.623071 310.881851 
L 64.245232 325.197192 
L 64.867393 288.470108 
L 65.489553 298.829828 
L 66.111714 300.844241 
L 66.733875 315.554895 
L 67.356035 316.196601 
L 67.978196 300.588915 
L 68.600357 278.691518 
L 69.222517 306.434351 
L 69.844678 298.0727 
L 70.466839 313.191466 
L 71.089 319.865111 
L 71.71116 289.057391 
L 72.333321 299.559218 
L 72.955482 305.0177 
L 73.577642 332.386316 
L 74.199803 326.881605 
L 74.821964 313.290668 
L 75.444125 314.237399 
L 76.066285 281.714291 
L 76.688446 322.959269 
L 77.310607 330.50953 
L 77.932767 294.435094 
L 78.554928 320.861755 
L 79.177089 301.016317 
L 79.79925 324.516171 
L 80.42141 242.073516 
L 81.043571 301.971584 
L 82.910053 254.13732 
L 83.532214 332.208913 
L 84.154374 281.418525 
L 84.776535 311.905742 
L 85.398696 311.346488 
L 86.020857 310.037904 
L 86.643017 309.736759 
L 87.265178 306.269473 
L 87.887339 294.377956 
L 88.509499 289.313422 
L 89.13166 330.868486 
L 89.753821 291.538965 
L 90.375982 302.250796 
L 90.998142 328.352714 
L 91.620303 278.560164 
L 92.242464 327.711825 
L 92.864624 299.83057 
L 93.486785 324.302588 
L 94.108946 332.066972 
L 94.731106 300.237698 
L 95.353267 328.917742 
L 95.975428 288.299003 
L 96.597589 289.335967 
L 97.219749 298.694916 
L 97.84191 278.467207 
L 98.464071 299.419622 
L 99.086231 289.325521 
L 99.708392 324.345877 
L 100.330553 330.846839 
L 100.952714 327.637907 
L 101.574874 323.733295 
L 102.197035 326.421149 
L 102.819196 324.775788 
L 103.441356 320.219384 
L 104.063517 295.875799 
L 104.685678 326.799474 
L 105.307838 291.636759 
L 105.929999 329.162684 
L 106.55216 295.895766 
L 107.174321 292.270715 
L 107.796481 300.003238 
L 108.418642 293.66491 
L 109.040803 320.635658 
L 109.662963 310.675218 
L 110.285124 323.924756 
L 110.907285 318.036436 
L 111.529446 320.847241 
L 112.151606 321.895759 
L 112.773767 263.330785 
L 113.395928 315.163459 
L 114.018088 275.678544 
L 114.640249 329.483025 
L 115.26241 294.148848 
L 115.88457 302.352348 
L 116.506731 323.016383 
L 117.128892 312.40248 
L 117.751053 318.420275 
L 118.373213 321.069271 
L 118.995374 289.970225 
L 119.617535 295.240579 
L 120.239695 324.812557 
L 120.861856 318.584923 
L 121.484017 305.114994 
L 122.106178 318.677442 
L 122.728338 325.462644 
L 123.350499 320.303574 
L 123.97266 304.613895 
L 124.59482 294.777788 
L 125.216981 277.983654 
L 125.839142 278.917339 
L 126.461302 316.981954 
L 127.083463 324.960196 
L 127.705624 323.488007 
L 128.327785 314.641295 
L 128.949945 273.987982 
L 129.572106 322.092674 
L 130.194267 309.097064 
L 130.816427 317.916576 
L 131.438588 308.996992 
L 132.060749 281.628315 
L 132.68291 327.020543 
L 133.30507 321.441072 
L 133.927231 295.527947 
L 134.549392 318.037408 
L 135.171552 320.175697 
L 135.793713 315.668355 
L 136.415874 283.029781 
L 137.038034 274.680822 
L 137.660195 316.254253 
L 138.282356 325.304806 
L 138.904517 261.68171 
L 139.526677 327.767561 
L 140.148838 323.427486 
L 140.770999 286.316267 
L 141.393159 314.474647 
L 142.637481 301.267123 
L 143.259642 289.059272 
L 143.881802 313.392235 
L 144.503963 322.426743 
L 145.748284 249.67552 
L 146.370445 312.344388 
L 146.992606 276.619872 
L 147.614767 264.828624 
L 148.236927 316.513503 
L 148.859088 294.096829 
L 149.481249 319.587623 
L 150.103409 289.867764 
L 150.72557 325.83913 
L 151.347731 316.613968 
L 151.969891 325.178325 
L 152.592052 304.876061 
L 153.214213 329.983267 
L 153.836374 309.3952 
L 154.458534 301.011807 
L 155.080695 282.163313 
L 155.702856 313.645273 
L 156.325016 328.958607 
L 156.947177 316.495168 
L 157.569338 243.706451 
L 158.191499 308.001853 
L 158.813659 329.485876 
L 159.43582 321.269037 
L 160.057981 326.627574 
L 161.302302 313.939724 
L 161.924463 313.040136 
L 162.546623 294.883708 
L 163.168784 289.875194 
L 163.790945 273.998473 
L 164.413106 292.503487 
L 165.035266 329.327699 
L 165.657427 326.047912 
L 166.279588 233.470076 
L 166.901748 318.611239 
L 167.523909 317.159645 
L 168.14607 297.046359 
L 168.768231 302.719406 
L 169.390391 299.155259 
L 170.012552 283.52626 
L 170.634713 318.6539 
L 171.256873 325.724485 
L 171.879034 316.380153 
L 172.501195 316.972481 
L 173.123355 321.516882 
L 173.745516 293.554149 
L 174.367677 303.598123 
L 174.989838 327.981575 
L 175.611998 332.732388 
L 176.234159 296.711611 
L 176.85632 287.867315 
L 177.47848 316.603447 
L 178.100641 277.42876 
L 178.722802 271.119783 
L 179.344963 317.651723 
L 179.967123 328.278914 
L 180.589284 322.733163 
L 181.211445 299.84878 
L 181.833605 265.266972 
L 182.455766 321.070485 
L 183.077927 312.820837 
L 183.700087 263.56389 
L 184.322248 315.109902 
L 184.944409 294.926838 
L 185.56657 301.683826 
L 186.18873 297.061275 
L 186.810891 279.657907 
L 187.433052 302.316004 
L 188.055212 307.810138 
L 188.677373 288.605834 
L 189.299534 255.67291 
L 189.921695 306.2969 
L 190.543855 267.624248 
L 191.166016 325.546382 
L 191.788177 280.83102 
L 192.410337 294.412465 
L 193.032498 269.615291 
L 193.654659 274.802129 
L 194.276819 304.774617 
L 194.89898 322.284336 
L 195.521141 316.321488 
L 196.143302 295.76118 
L 196.765462 314.151529 
L 197.387623 274.45566 
L 198.009784 248.110255 
L 198.631944 297.799654 
L 199.254105 270.960529 
L 199.876266 318.096863 
L 200.498427 309.703995 
L 201.120587 305.149279 
L 201.742748 330.980069 
L 202.364909 283.027738 
L 202.987069 325.354091 
L 203.60923 308.395391 
L 204.231391 315.064758 
L 204.853551 323.271074 
L 205.475712 315.947924 
L 206.097873 329.307448 
L 206.720034 329.960056 
L 207.342194 331.896623 
L 207.964355 245.346784 
L 208.586516 332.79679 
L 209.208676 281.367112 
L 210.452998 329.712027 
L 211.075159 239.879373 
L 211.697319 301.64495 
L 212.31948 319.192931 
L 212.941641 273.007413 
L 213.563801 322.923315 
L 214.185962 301.707463 
L 214.808123 310.420799 
L 215.430284 327.715016 
L 216.052444 323.880166 
L 216.674605 312.874242 
L 217.296766 309.765319 
L 217.918926 318.250632 
L 218.541087 278.390017 
L 219.163248 289.113189 
L 219.785408 315.394524 
L 220.407569 302.77011 
L 221.02973 309.686276 
L 221.651891 310.723242 
L 222.274051 283.115388 
L 222.896212 247.752345 
L 223.518373 313.037761 
L 224.140533 317.101731 
L 224.762694 324.609866 
L 225.384855 305.116309 
L 226.007016 262.311374 
L 226.629176 319.090819 
L 227.251337 302.83406 
L 227.873498 314.817835 
L 228.495658 324.0487 
L 229.73998 277.523927 
L 230.36214 299.3757 
L 230.984301 286.297421 
L 231.606462 281.767272 
L 232.228623 305.926127 
L 232.850783 276.510015 
L 233.472944 289.490789 
L 234.095105 293.409444 
L 234.717265 295.091262 
L 235.339426 271.832649 
L 235.961587 315.078986 
L 236.583748 303.711855 
L 237.205908 330.825624 
L 237.828069 331.954064 
L 238.45023 243.207574 
L 239.07239 314.787159 
L 239.694551 310.906051 
L 240.316712 300.57322 
L 240.938872 321.741572 
L 241.561033 273.868599 
L 242.183194 261.379951 
L 242.805355 329.171783 
L 243.427515 294.860249 
L 244.049676 323.358397 
L 244.671837 323.47139 
L 245.293997 329.3429 
L 245.916158 281.364558 
L 246.538319 305.589219 
L 247.16048 322.924891 
L 247.78264 296.751502 
L 248.404801 291.190158 
L 249.649122 302.614678 
L 250.271283 312.430315 
L 250.893444 292.726171 
L 251.515604 298.297128 
L 252.137765 332.146692 
L 252.759926 325.539154 
L 253.382087 284.393957 
L 254.004247 297.882641 
L 254.626408 318.927495 
L 255.248569 315.539255 
L 255.870729 301.900721 
L 256.49289 321.965369 
L 257.115051 307.024606 
L 257.737212 300.112926 
L 258.359372 324.471602 
L 258.981533 312.564276 
L 259.603694 326.248076 
L 260.225854 319.400179 
L 260.848015 327.280435 
L 261.470176 291.677969 
L 262.092336 322.898681 
L 262.714497 287.104573 
L 263.336658 324.00379 
L 263.958819 317.998871 
L 264.580979 287.642441 
L 265.20314 275.762707 
L 265.825301 278.001395 
L 266.447461 312.041493 
L 267.069622 266.240661 
L 267.691783 326.608313 
L 268.313944 302.381437 
L 268.936104 324.180998 
L 269.558265 306.347124 
L 270.180426 263.126922 
L 270.802586 310.054729 
L 271.424747 317.121148 
L 272.046908 328.013797 
L 272.669069 323.751628 
L 273.291229 305.905553 
L 273.91339 306.537073 
L 274.535551 304.73844 
L 275.157711 331.943804 
L 275.779872 327.804692 
L 276.402033 277.791663 
L 277.024193 324.210048 
L 277.646354 289.458546 
L 278.268515 276.99241 
L 278.890676 308.753058 
L 279.512836 308.07031 
L 280.134997 300.961897 
L 280.757158 280.680907 
L 281.379318 289.416315 
L 282.001479 300.282534 
L 282.62364 303.669061 
L 283.245801 312.042022 
L 283.867961 258.831288 
L 284.490122 310.177513 
L 285.112283 325.710805 
L 285.734443 304.481991 
L 286.356604 330.097958 
L 286.978765 297.573586 
L 287.600925 327.400539 
L 288.223086 324.801899 
L 288.845247 323.38715 
L 289.467408 317.194243 
L 290.089568 321.320492 
L 290.711729 304.274057 
L 291.33389 304.357461 
L 291.95605 282.994739 
L 292.578211 324.395209 
L 293.200372 318.602344 
L 293.822533 306.671355 
L 294.444693 322.305907 
L 295.689015 303.600592 
L 296.311175 244.930731 
L 296.933336 316.910183 
L 297.555497 330.971211 
L 298.177657 324.501622 
L 298.799818 287.966622 
L 299.421979 309.318965 
L 300.04414 296.983217 
L 300.6663 324.906783 
L 301.288461 322.221656 
L 301.910622 297.353135 
L 302.532782 329.484809 
L 303.154943 326.353145 
L 303.777104 311.514616 
L 304.399265 310.811237 
L 305.021425 328.889164 
L 305.643586 331.468766 
L 306.265747 318.4449 
L 306.887907 332.866553 
L 307.510068 331.713305 
L 308.754389 278.961147 
L 309.37655 309.822594 
L 309.998711 322.111829 
L 310.620872 302.742553 
L 311.243032 329.445384 
L 311.865193 279.10639 
L 312.487354 299.548664 
L 313.109514 315.989343 
L 313.731675 276.949047 
L 314.353836 320.580265 
L 314.975997 291.813094 
L 315.598157 288.395851 
L 316.220318 272.150732 
L 316.842479 300.103083 
L 317.464639 318.354986 
L 318.0868 322.476241 
L 318.708961 322.852496 
L 319.331121 284.337929 
L 319.953282 320.552262 
L 320.575443 305.30694 
L 321.197604 304.658012 
L 321.819764 312.586338 
L 322.441925 295.674449 
L 323.064086 324.043538 
L 323.686246 287.605201 
L 324.308407 324.379032 
L 325.552729 287.277099 
L 326.174889 309.72367 
L 327.419211 264.456316 
L 328.041371 326.981617 
L 328.663532 314.845746 
L 329.285693 282.084914 
L 329.907853 326.563532 
L 330.530014 311.529713 
L 331.152175 299.916418 
L 331.774336 299.082291 
L 332.396496 279.293928 
L 333.640818 331.615981 
L 334.262978 289.18793 
L 334.885139 267.287994 
L 335.5073 263.242324 
L 336.129461 324.570092 
L 336.751621 275.892234 
L 337.373782 270.146639 
L 337.995943 328.508297 
L 338.618103 277.0067 
L 339.240264 297.727581 
L 339.862425 282.202853 
L 340.484586 296.119748 
L 341.106746 285.444367 
L 341.728907 314.866817 
L 342.351068 325.12175 
L 342.973228 321.885315 
L 343.595389 301.822893 
L 344.21755 322.699648 
L 344.83971 314.899367 
L 345.461871 317.731841 
L 346.084032 284.137328 
L 346.706193 330.294091 
L 347.328353 310.749079 
L 347.950514 306.618202 
L 348.572675 312.952494 
L 349.194835 310.015417 
L 349.816996 331.176744 
L 350.439157 313.892425 
L 351.061318 310.164113 
L 351.683478 317.093595 
L 352.305639 277.238297 
L 352.9278 276.650865 
L 353.54996 291.268078 
L 354.172121 290.320199 
L 354.794282 322.140818 
L 355.416442 320.685411 
L 356.038603 313.121649 
L 356.660764 327.377732 
L 357.282925 327.162042 
L 357.905085 288.026449 
L 358.527246 287.833825 
L 359.149407 330.528247 
L 359.771567 330.909389 
L 360.393728 291.33996 
L 361.015889 315.24487 
L 362.26021 303.050235 
L 362.882371 316.606004 
L 363.504532 305.913405 
L 364.126692 309.074648 
L 364.748853 328.278129 
L 365.371014 320.972599 
L 365.993174 294.923965 
L 366.615335 303.467483 
L 367.237496 328.529098 
L 367.859657 319.850592 
L 368.481817 306.88271 
L 369.103978 314.064473 
L 369.726139 323.752703 
L 370.348299 284.413456 
L 370.97046 291.206584 
L 371.592621 325.762289 
L 372.214782 328.240233 
L 372.836942 311.030414 
L 373.459103 265.034899 
L 374.081264 327.524221 
L 374.703424 303.845785 
L 375.325585 289.633674 
L 376.569906 332.224704 
L 377.192067 305.651437 
L 377.814228 311.3355 
L 378.436389 332.593992 
L 379.058549 322.803663 
L 379.68071 310.863166 
L 380.302871 289.957177 
L 380.925031 322.000664 
L 381.547192 329.470412 
L 382.169353 320.285299 
L 382.791514 301.113702 
L 383.413674 330.814026 
L 384.035835 331.306657 
L 384.657996 321.390539 
L 385.280156 237.942392 
L 385.902317 303.392161 
L 386.524478 244.845888 
L 387.146638 322.785525 
L 387.768799 305.323552 
L 388.39096 326.246219 
L 389.013121 299.202144 
L 389.635281 324.703909 
L 390.257442 326.589963 
L 390.879603 314.590473 
L 391.501763 275.162713 
L 392.123924 323.499641 
L 392.746085 322.632681 
L 393.368246 317.208427 
L 393.990406 322.102521 
L 394.612567 291.132341 
L 395.234728 305.998821 
L 395.856888 301.163841 
L 396.479049 298.882411 
L 397.10121 316.387934 
L 397.72337 324.977049 
L 398.345531 286.497534 
L 398.967692 328.939186 
L 399.589853 280.341079 
L 400.212013 302.640976 
L 400.834174 292.843687 
L 401.456335 323.86828 
L 402.078495 325.05479 
L 402.700656 332.568194 
L 403.322817 286.359187 
L 403.944978 283.475952 
L 404.567138 321.168953 
L 405.189299 307.507665 
L 405.81146 330.938009 
L 407.055781 277.746118 
L 407.677942 309.678911 
L 408.300103 265.875169 
L 408.922263 331.086521 
L 409.544424 313.708021 
L 410.166585 286.208268 
L 410.788745 315.967735 
L 412.033067 281.513096 
L 412.655227 315.736898 
L 413.277388 332.079715 
L 413.899549 276.836766 
L 414.52171 279.888984 
L 415.14387 323.212442 
L 415.766031 274.202963 
L 416.388192 324.24606 
L 417.010352 330.195019 
L 417.632513 316.224114 
L 418.254674 250.224251 
L 418.876835 285.039592 
L 419.498995 303.670751 
L 420.121156 316.784645 
L 421.365477 326.055252 
L 421.987638 301.345355 
L 422.609799 328.920633 
L 423.231959 284.689684 
L 423.85412 289.978387 
L 424.476281 285.773919 
L 425.098442 315.869602 
L 425.720602 305.880817 
L 426.342763 317.244462 
L 426.964924 294.788601 
L 427.587084 323.506455 
L 428.209245 332.136742 
L 428.831406 280.490252 
L 429.453567 314.219305 
L 430.075727 313.032651 
L 430.697888 318.342479 
L 431.320049 264.357375 
L 431.942209 327.457967 
L 432.56437 314.348584 
L 433.186531 321.953 
L 433.808691 310.963364 
L 434.430852 297.812275 
L 435.053013 280.860865 
L 435.675174 313.271617 
L 436.297334 317.920327 
L 436.919495 302.61369 
L 437.541656 324.987 
L 438.163816 325.897569 
L 438.785977 331.554836 
L 439.408138 314.899525 
L 440.030299 219.249295 
L 440.652459 260.679305 
L 441.27462 318.118269 
L 441.896781 306.886295 
L 442.518941 314.586013 
L 443.141102 301.492361 
L 443.763263 310.317913 
L 444.385423 325.00871 
L 445.007584 321.939026 
L 445.629745 279.791649 
L 446.251906 291.552556 
L 446.874066 253.52154 
L 447.496227 309.8594 
L 448.118388 300.053122 
L 448.740548 315.948379 
L 449.362709 317.356406 
L 449.98487 319.58389 
L 450.607031 314.561346 
L 451.229191 317.487434 
L 451.851352 312.793718 
L 452.473513 312.038519 
L 453.095673 320.404463 
L 453.717834 315.845138 
L 454.339995 316.795133 
L 454.962155 307.822782 
L 455.584316 319.442384 
L 456.206477 328.414965 
L 456.828638 305.436622 
L 457.450798 327.15557 
L 458.072959 297.984686 
L 459.31728 324.753715 
L 459.939441 318.405392 
L 460.561602 332.249086 
L 461.183763 321.15028 
L 461.805923 330.580603 
L 462.428084 332.605478 
L 463.050245 320.349714 
L 463.672405 277.059168 
L 464.294566 315.683326 
L 464.916727 318.048471 
L 465.538887 330.625905 
L 466.161048 315.227896 
L 466.783209 321.097163 
L 467.40537 296.37576 
L 468.02753 323.919952 
L 468.649691 326.114501 
L 469.271852 316.322402 
L 469.894012 321.818408 
L 470.516173 291.458323 
L 472.382655 325.618927 
L 473.004816 310.509838 
L 473.626977 265.112129 
L 474.249137 330.110547 
L 474.871298 282.26979 
L 475.493459 329.413385 
L 476.11562 332.189979 
L 476.73778 321.069391 
L 477.359941 290.062901 
L 477.982102 307.487619 
L 478.604262 306.69766 
L 479.226423 278.794427 
L 479.848584 318.509635 
L 480.470744 268.686269 
L 481.092905 311.934385 
L 481.715066 323.824776 
L 482.337227 319.659959 
L 482.959387 306.792944 
L 483.581548 273.857773 
L 484.203709 324.827646 
L 485.44803 267.82724 
L 486.070191 300.437448 
L 486.692352 326.397268 
L 487.314512 307.507228 
L 487.936673 314.980298 
L 488.558834 269.599807 
L 489.180994 272.672086 
L 489.803155 330.025753 
L 490.425316 317.03411 
L 491.047476 284.477084 
L 491.669637 319.27326 
L 492.291798 315.585161 
L 492.913959 330.694296 
L 493.536119 328.36493 
L 494.15828 314.877399 
L 494.780441 311.667125 
L 495.402601 325.005659 
L 496.024762 302.512714 
L 496.646923 307.75955 
L 497.269084 290.471988 
L 497.891244 326.702641 
L 498.513405 331.165933 
L 499.135566 312.290192 
L 499.757726 302.542529 
L 500.379887 271.622658 
L 501.002048 324.908618 
L 501.624208 299.393344 
L 502.246369 326.223097 
L 502.86853 276.770882 
L 503.490691 312.75818 
L 504.112851 315.82599 
L 504.735012 304.983847 
L 505.357173 305.979508 
L 505.979333 302.716697 
L 506.601494 268.168763 
L 507.223655 291.544003 
L 507.845816 325.606017 
L 508.467976 311.937378 
L 509.090137 274.645515 
L 509.712298 317.521372 
L 510.334458 297.306183 
L 510.956619 288.445178 
L 511.57878 321.32249 
L 512.20094 313.834485 
L 512.823101 319.137209 
L 513.445262 275.571229 
L 514.067423 271.964786 
L 514.689583 306.860883 
L 515.311744 318.296388 
L 515.933905 324.701754 
L 516.556065 328.929125 
L 517.178226 326.063239 
L 517.800387 320.938391 
L 518.422548 308.620438 
L 519.044708 298.998418 
L 519.666869 316.653235 
L 520.28903 319.18549 
L 520.91119 256.281436 
L 521.533351 323.110727 
L 522.155512 292.877015 
L 522.777672 313.491235 
L 523.399833 305.487351 
L 524.021994 268.751384 
L 524.644155 292.178419 
L 525.266315 306.648363 
L 525.888476 298.303987 
L 526.510637 297.657459 
L 527.132797 302.604756 
L 527.754958 313.367115 
L 528.377119 308.171335 
L 528.99928 310.9141 
L 529.62144 310.186267 
L 530.243601 310.771549 
L 530.865762 304.77688 
L 531.487922 290.639727 
L 532.110083 292.496405 
L 532.732244 325.181052 
L 533.354404 304.109656 
L 533.976565 331.705579 
L 534.598726 332.777857 
L 535.220887 313.752709 
L 535.843047 318.352555 
L 536.465208 262.601902 
L 537.087369 258.470078 
L 537.709529 321.286948 
L 538.33169 309.43228 
L 538.953851 276.377028 
L 539.576012 298.543183 
L 540.198172 327.091466 
L 540.820333 320.530351 
L 541.442494 265.716899 
L 542.064654 332.116713 
L 542.686815 289.420483 
L 543.308976 316.392471 
L 543.931137 291.085211 
L 544.553297 295.133137 
L 545.175458 329.389143 
L 545.797619 328.02473 
L 546.419779 309.893819 
L 547.664101 295.254065 
L 548.286261 330.304305 
L 548.908422 312.916086 
L 549.530583 284.718391 
L 550.152744 331.01558 
L 550.774904 262.450609 
L 551.397065 330.700093 
L 552.019226 274.266472 
L 552.641386 281.457329 
L 553.263547 300.169993 
L 553.885708 322.976628 
L 554.507869 310.781222 
L 555.130029 332.052061 
L 555.75219 253.862944 
L 556.374351 242.286456 
L 556.996511 313.923399 
L 557.618672 331.472533 
L 558.240833 273.039119 
L 558.862993 275.665814 
L 559.485154 323.300599 
L 560.107315 306.651886 
L 560.729476 332.722287 
L 561.351636 331.431159 
L 561.973797 289.539217 
L 562.595958 303.02046 
L 563.218118 308.505002 
L 563.840279 322.29264 
L 564.46244 317.421391 
L 565.084601 295.926253 
L 565.706761 313.931979 
L 566.328922 286.683544 
L 566.951083 302.007397 
L 567.573243 329.269466 
L 568.195404 269.207349 
L 568.817565 329.12557 
L 569.439725 313.57004 
L 570.061886 320.212117 
L 570.684047 304.506412 
L 571.306208 284.670711 
L 571.928368 278.991586 
L 572.550529 320.192474 
L 573.17269 309.323905 
L 573.79485 289.258351 
L 574.417011 238.37911 
L 575.039172 329.328462 
L 576.283493 245.676277 
L 576.905654 330.979118 
L 577.527815 331.076712 
L 578.149975 314.269899 
L 578.772136 326.760336 
L 580.016457 280.061748 
L 580.638618 310.480387 
L 581.260779 316.902189 
L 581.88294 315.4081 
L 582.5051 318.618416 
L 583.127261 315.13739 
L 583.749422 301.703625 
L 584.371582 332.393828 
L 584.993743 301.857666 
L 585.615904 293.722196 
L 586.238065 271.53171 
L 586.860225 312.137745 
L 587.482386 276.613618 
L 588.104547 332.350714 
L 588.726707 298.500521 
L 589.348868 304.123947 
L 590.593189 320.190321 
L 591.21535 296.587155 
L 591.837511 301.273256 
L 592.459672 296.17181 
L 593.081832 330.304579 
L 593.703993 280.154637 
L 594.326154 258.669973 
L 594.948314 262.333061 
L 595.570475 255.327534 
L 596.192636 326.915205 
L 596.814797 311.947469 
L 597.436957 321.560483 
L 598.059118 318.404873 
L 598.681279 314.535078 
L 599.303439 314.695407 
L 599.9256 323.213317 
L 600.547761 304.183308 
L 601.169921 325.521214 
L 601.792082 300.935483 
L 602.414243 332.383684 
L 603.036404 311.634306 
L 603.658564 330.033851 
L 604.280725 331.599068 
L 604.902886 326.046521 
L 605.525046 326.723455 
L 606.147207 326.187313 
L 606.769368 307.750759 
L 607.391529 331.1492 
L 608.013689 291.685511 
L 608.63585 313.866382 
L 609.258011 331.406842 
L 609.880171 309.492313 
L 610.502332 312.62431 
L 611.124493 309.631061 
L 611.746654 274.93301 
L 612.368814 303.864001 
L 613.613136 317.565486 
L 614.857457 291.503868 
L 615.479618 324.653478 
L 616.101778 295.64059 
L 616.723939 330.696286 
L 617.3461 274.089213 
L 617.968261 321.314502 
L 618.590421 331.327338 
L 619.212582 288.742043 
L 619.834743 310.129094 
L 620.456903 304.858087 
L 621.079064 321.205482 
L 621.701225 287.925577 
L 622.323386 308.125306 
L 622.945546 332.361912 
L 623.567707 307.811621 
L 624.812028 329.766133 
L 625.434189 306.793223 
L 626.05635 318.903536 
L 626.67851 282.654245 
L 627.300671 304.565548 
L 627.922832 299.262825 
L 628.544993 321.551173 
L 629.167153 271.705517 
L 629.789314 320.103872 
L 630.411475 294.307692 
L 631.033635 310.75752 
L 631.655796 322.397679 
L 632.277957 288.575942 
L 632.900118 320.445513 
L 633.522278 313.083151 
L 634.144439 324.893701 
L 634.7666 311.70847 
L 635.38876 328.778061 
L 636.633082 310.562131 
L 637.255242 314.727524 
L 637.877403 279.428683 
L 638.499564 276.340805 
L 639.121725 332.539496 
L 640.366046 305.669731 
L 640.988207 302.549313 
L 641.610367 324.781819 
L 642.232528 312.926174 
L 642.854689 289.153614 
L 643.47685 299.88798 
L 644.09901 326.923437 
L 644.721171 309.043891 
L 645.343332 329.349154 
L 645.965492 324.349425 
L 646.587653 332.413055 
L 647.209814 317.607 
L 647.831974 309.127162 
L 648.454135 308.817113 
L 649.076296 293.139614 
L 649.698457 329.516094 
L 650.320617 238.089946 
L 650.942778 309.45523 
L 651.564939 293.617331 
L 652.187099 301.149921 
L 652.80926 329.471344 
L 653.431421 290.225362 
L 654.053582 328.163167 
L 654.675742 314.055824 
L 655.297903 280.345676 
L 655.920064 320.511134 
L 656.542224 331.909076 
L 657.164385 287.923849 
L 657.786546 260.96471 
L 658.408706 318.696619 
L 659.030867 322.506464 
L 659.653028 298.695321 
L 660.275189 263.230989 
L 660.897349 325.354591 
L 661.51951 262.760111 
L 662.141671 287.057768 
L 662.763831 325.241924 
L 663.385992 286.164975 
L 664.008153 301.691999 
L 664.630314 328.772407 
L 665.252474 309.459806 
L 665.874635 323.537387 
L 666.496796 267.240799 
L 667.118956 286.985097 
L 667.741117 273.007291 
L 668.363278 293.842645 
L 668.985439 267.178864 
L 669.607599 318.005635 
L 670.22976 309.656834 
L 670.851921 293.769662 
L 671.474081 318.933032 
L 672.096242 250.399472 
L 672.460183 307.919966 
L 672.718403 315.964481 
L 672.918694 318.552168 
L 673.082343 314.882731 
L 673.220707 305.049169 
L 673.340563 324.295413 
L 673.446284 309.311729 
L 673.540854 326.626847 
L 673.626404 308.327784 
L 673.704504 315.183836 
L 673.77635 324.44885 
L 673.842868 246.188507 
L 673.904795 301.612443 
L 673.962724 331.472372 
L 674.01714 288.834527 
L 674.068445 325.127169 
L 674.116975 327.19507 
L 674.163015 273.145475 
L 674.206809 327.398317 
L 674.248564 324.381023 
L 674.39851 264.720661 
L 674.526956 331.40089 
L 674.612505 299.005536 
L 674.639301 310.021526 
L 674.66532 309.649359 
L 674.690606 328.81855 
L 674.715199 257.662155 
L 674.785176 323.126437 
L 674.80734 320.128099 
L 674.828969 220.354761 
L 674.890897 332.513258 
L 674.910625 302.521864 
L 674.967333 277.388784 
L 674.948826 331.93159 
L 675.003241 295.390431 
L 675.071016 328.947072 
L 675.118687 304.258656 
L 675.163953 299.972596 
L 675.220962 331.725997 
L 675.234666 250.594415 
L 675.325147 307.576104 
L 675.349408 281.775029 
L 675.361296 289.620153 
L 675.4295 332.312217 
L 675.45113 277.376108 
L 675.472251 316.491642 
L 675.522975 252.967924 
L 675.552089 330.020457 
L 675.589494 299.106932 
L 675.616559 274.795849 
L 675.651421 326.081289 
L 675.740848 330.210751 
L 675.763766 238.941182 
L 675.793441 328.050646 
L 675.876998 316.630385 
L 675.934927 235.459468 
L 675.896726 332.036872 
L 675.977532 281.159445 
L 675.989343 332.822992 
L 676.057118 222.109468 
L 676.089178 329.264798 
L 676.109932 237.529695 
L 676.159811 330.207008 
L 676.19781 312.203571 
L 676.23872 332.924423 
L 676.260667 269.68529 
L 676.303014 301.455187 
L 676.355237 249.28808 
L 676.404588 329.076778 
L 676.415602 284.576807 
L 676.522133 332.562681 
L 676.475581 232.57704 
L 676.535002 331.567454 
L 676.557088 241.039041 
L 676.64603 304.49094 
L 676.673822 332.95156 
L 676.695451 219.035118 
L 676.757379 309.748696 
L 676.840658 329.291041 
L 676.833815 255.11904 
L 676.84745 298.239649 
L 676.849702 195.512727 
L 676.865313 331.870436 
L 676.95767 267.97618 
L 676.967588 332.205167 
L 677.068253 258.302442 
L 677.070015 311.000715 
L 677.147528 332.906403 
L 677.13288 296.524905 
L 677.18236 327.690078 
L 677.268191 289.15717 
L 677.246768 332.955587 
L 677.293242 293.655354 
L 677.35297 332.375504 
L 677.399267 281.843145 
L 677.404132 312.45086 
L 677.511469 287.47907 
L 677.507153 332.813468 
L 677.514692 317.173464 
L 677.561697 332.931234 
L 677.601508 288.732692 
L 677.624573 320.709273 
L 677.71391 286.365398 
L 677.695688 332.967273 
L 677.73513 300.594194 
L 677.812251 332.931234 
L 677.780919 288.732692 
L 677.846241 317.173464 
L 677.918143 281.843145 
L 677.851414 332.813468 
L 677.956971 319.765746 
L 678.06138 258.302442 
L 677.99356 332.955587 
L 678.067773 294.569391 
L 678.161185 332.95156 
L 678.123347 195.512727 
L 678.178755 319.314834 
L 678.242454 222.109468 
L 678.224641 332.924423 
L 678.289352 306.331429 
L 678.297907 332.513258 
L 678.29925 220.354761 
L 678.317411 318.933032 
" clip-path="url(#p8c666127d9)" style="fill: none; stroke: #1f77b4; stroke-width: 1.5; stroke-linecap: square"/>
   </g>
   <g id="patch_8">
    <path d="M 40.603125 339.84 
L 40.603125 188.64 
" style="fill: none; stroke: #000000; stroke-width: 0.8; stroke-linejoin: miter; stroke-linecap: square"/>
   </g>
   <g id="patch_9">
    <path d="M 710.203125 339.84 
L 710.203125 188.64 
" style="fill: none; stroke: #000000; stroke-width: 0.8; stroke-linejoin: miter; stroke-linecap: square"/>
   </g>
   <g id="patch_10">
    <path d="M 40.603125 339.84 
L 710.203125 339.84 
" style="fill: none; stroke: #000000; stroke-width: 0.8; stroke-linejoin: miter; stroke-linecap: square"/>
   </g>
   <g id="patch_11">
    <path d="M 40.603125 188.64 
L 710.203125 188.64 
" style="fill: none; stroke: #000000; stroke-width: 0.8; stroke-linejoin: miter; stroke-linecap: square"/>
   </g>
  </g>
 </g>
 <defs>
  <clipPath id="pab34efd456">
   <rect x="40.603125" y="7.2" width="669.6" height="151.2"/>
  </clipPath>
  <clipPath id="p8c666127d9">
   <rect x="40.603125" y="188.64" width="669.6" height="151.2"/>
  </clipPath>
 </defs>
</svg>
